#N canvas 208 208 332 434 12;
#X obj 96 106 line;
#X obj 73 149 max;
#X obj 155 199 sel 1;
#X msg 156 341 0;
#X obj 161 292 t b b;
#X obj 83 248 change;
#X obj 157 227 change;
#X obj 71 208 spigot;
#X obj 109 181 == 0;
#X obj 153 162 < 40;
#X msg 94 77 \$1 20;
#X obj 71 179 int;
#X obj 161 260 delay 100;
#X obj 89 300 line;
#X obj 91 326 / 255;
#X msg 87 271 \$1 1000;
#X obj 93 49 inlet;
#X obj 88 358 outlet;
#X connect 0 0 1 0;
#X connect 0 0 9 0;
#X connect 1 0 11 0;
#X connect 2 0 6 0;
#X connect 3 0 5 0;
#X connect 3 0 1 1;
#X connect 4 0 3 0;
#X connect 5 0 15 0;
#X connect 6 0 12 0;
#X connect 7 0 5 0;
#X connect 8 0 7 1;
#X connect 9 0 2 0;
#X connect 9 0 8 0;
#X connect 10 0 0 0;
#X connect 11 0 1 1;
#X connect 11 0 7 0;
#X connect 12 0 4 0;
#X connect 13 0 14 0;
#X connect 14 0 17 0;
#X connect 15 0 13 0;
#X connect 16 0 10 0;
