#N canvas 156 156 1920 1157 12;
#X obj 25 158 soundfiler;
#X obj 27 68 array define a;
#X msg 26 123 read -resize a.wav a;
#X obj 25 97 loadbang;
#X obj 181 158 soundfiler;
#X obj 181 97 loadbang;
#X obj 183 68 array define b;
#X msg 182 123 read -resize b.wav b;
#X obj 20 284 soundfiler;
#X obj 20 223 loadbang;
#X obj 176 284 soundfiler;
#X obj 176 223 loadbang;
#X obj 22 194 array define c;
#X obj 178 194 array define d;
#X obj 20 411 soundfiler;
#X obj 20 350 loadbang;
#X obj 176 411 soundfiler;
#X obj 176 350 loadbang;
#X obj 21 542 soundfiler;
#X obj 21 481 loadbang;
#X obj 23 452 array define g;
#X msg 22 507 read -resize g.wav g;
#X msg 177 376 read -resize f.wav f;
#X obj 178 321 array define f;
#X obj 22 321 array define e;
#X msg 21 376 read -resize e.wav e;
#X msg 177 249 read -resize d.wav d;
#X msg 21 249 read -resize c.wav c;
#X obj 487 417 tabplay~ a;
#X obj 488 390 sel 1;
#X obj 578 387 sel 1;
#X obj 670 384 sel 1;
#X obj 760 381 sel 1;
#X obj 858 382 sel 1;
#X obj 948 379 sel 1;
#X obj 1046 381 sel 1;
#X obj 577 414 tabplay~ b;
#X obj 669 411 tabplay~ c;
#X obj 759 408 tabplay~ d;
#X obj 857 409 tabplay~ e;
#X obj 947 406 tabplay~ f;
#X obj 1045 408 tabplay~ g;
#X obj 484 325 > 0.05;
#X obj 490 355 change;
#X obj 570 322 > 0.05;
#X obj 576 352 change;
#X obj 468 233 snapshot~;
#X obj 565 162 bang~;
#X obj 495 473 *~;
#X obj 580 475 *~;
#X obj 674 471 *~;
#X obj 759 473 *~;
#X obj 867 466 *~;
#X obj 952 468 *~;
#X obj 1046 464 *~;
#X obj 664 310 > 0.05;
#X obj 670 340 change;
#X obj 750 307 > 0.05;
#X obj 756 337 change;
#X obj 851 303 > 0.05;
#X obj 857 333 change;
#X obj 937 300 > 0.05;
#X obj 943 330 change;
#X obj 1031 288 > 0.05;
#X obj 1037 318 change;
#X obj 571 230 snapshot~;
#X obj 666 227 snapshot~;
#X obj 769 224 snapshot~;
#X obj 867 224 snapshot~;
#X obj 962 221 snapshot~;
#X obj 1065 218 snapshot~;
#X obj 652 603 *~ 0.2;
#X obj 647 717 dac~ 1 2 3;
#X obj 722 672 *~ 0.2;
#X obj 535 96 inlet~;
#X obj 609 92 inlet~;
#X obj 686 93 inlet~;
#X obj 760 89 inlet~;
#X obj 846 82 inlet~;
#X obj 948 87 inlet~;
#X obj 1034 80 inlet~;
#X connect 2 0 0 0;
#X connect 3 0 2 0;
#X connect 5 0 7 0;
#X connect 7 0 4 0;
#X connect 9 0 27 0;
#X connect 11 0 26 0;
#X connect 15 0 25 0;
#X connect 17 0 22 0;
#X connect 19 0 21 0;
#X connect 21 0 18 0;
#X connect 22 0 16 0;
#X connect 25 0 14 0;
#X connect 26 0 10 0;
#X connect 27 0 8 0;
#X connect 28 0 48 0;
#X connect 29 0 28 0;
#X connect 30 0 36 0;
#X connect 31 0 37 0;
#X connect 32 0 38 0;
#X connect 33 0 39 0;
#X connect 34 0 40 0;
#X connect 35 0 41 0;
#X connect 36 0 49 0;
#X connect 37 0 50 0;
#X connect 38 0 51 0;
#X connect 39 0 52 0;
#X connect 40 0 53 0;
#X connect 41 0 54 0;
#X connect 42 0 43 0;
#X connect 43 0 29 0;
#X connect 44 0 45 0;
#X connect 45 0 30 0;
#X connect 46 0 42 0;
#X connect 47 0 46 0;
#X connect 47 0 65 0;
#X connect 47 0 66 0;
#X connect 47 0 67 0;
#X connect 47 0 68 0;
#X connect 47 0 69 0;
#X connect 47 0 70 0;
#X connect 48 0 71 0;
#X connect 49 0 71 0;
#X connect 50 0 71 0;
#X connect 51 0 71 0;
#X connect 52 0 71 0;
#X connect 53 0 71 0;
#X connect 54 0 71 0;
#X connect 55 0 56 0;
#X connect 56 0 31 0;
#X connect 57 0 58 0;
#X connect 58 0 32 0;
#X connect 59 0 60 0;
#X connect 60 0 33 0;
#X connect 61 0 62 0;
#X connect 62 0 34 0;
#X connect 63 0 64 0;
#X connect 64 0 35 0;
#X connect 65 0 44 0;
#X connect 66 0 55 0;
#X connect 67 0 57 0;
#X connect 68 0 59 0;
#X connect 69 0 61 0;
#X connect 70 0 63 0;
#X connect 71 0 72 0;
#X connect 71 0 72 1;
#X connect 71 0 73 0;
#X connect 73 0 72 2;
#X connect 74 0 46 0;
#X connect 74 0 48 1;
#X connect 75 0 65 0;
#X connect 75 0 49 1;
#X connect 76 0 66 0;
#X connect 76 0 50 1;
#X connect 77 0 67 0;
#X connect 77 0 51 1;
#X connect 78 0 68 0;
#X connect 78 0 52 1;
#X connect 79 0 69 0;
#X connect 79 0 53 1;
#X connect 80 0 70 0;
#X connect 80 0 54 1;
