#N canvas 78 78 1920 1157 12;
#X obj 236 342 route 16;
#X obj 236 373 unpack 0 0 0 0 0 0 0 0 0 0, f 109;
#X obj 239 410 clip 0 30;
#X obj 240 464 / 30;
#X obj 238 513 * -1;
#X obj 235 577 + 1;
#X obj 392 414 clip 0 30;
#X obj 393 468 / 30;
#X obj 391 517 * -1;
#X obj 388 581 + 1;
#X obj 475 417 clip 0 30;
#X obj 476 471 / 30;
#X obj 474 520 * -1;
#X obj 471 584 + 1;
#X obj 573 407 clip 0 30;
#X obj 574 461 / 30;
#X obj 572 510 * -1;
#X obj 568 569 + 1;
#X obj 656 410 clip 0 30;
#X obj 657 464 / 30;
#X obj 655 513 * -1;
#X obj 652 577 + 1;
#X obj 743 411 clip 0 30;
#X obj 744 465 / 30;
#X obj 742 514 * -1;
#X obj 739 578 + 1;
#X obj 826 414 clip 0 30;
#X obj 827 468 / 30;
#X obj 825 517 * -1;
#X obj 822 581 + 1;
#X obj 1160 711 line~;
#X obj 1240 808 clip~ 0 1;
#X obj 1164 764 hip~ 1;
#X obj 1169 740 lop~ 1;
#X obj 1248 832 *~ 20;
#X obj 1124 832 *~ 20;
#X obj 1116 808 clip~ -1 0;
#X obj 1212 886 snapshot~;
#X obj 1189 836 bang~;
#X obj 1213 943 change;
#X obj 1213 971 sel 1;
#X msg 1214 1003 1;
#X obj 1144 1031 tgl 19 0 empty empty empty 0 -10 0 12 #fcfcfc #000000 #000000 0 1;
#X obj 1141 889 snapshot~;
#X obj 1142 946 change;
#X obj 1142 974 sel 1;
#X msg 1143 1006 0;
#X msg 1158 689 \$1 100;
#X obj 1374 715 line~;
#X obj 1454 812 clip~ 0 1;
#X obj 1378 768 hip~ 1;
#X obj 1383 744 lop~ 1;
#X obj 1462 836 *~ 20;
#X obj 1338 836 *~ 20;
#X obj 1330 812 clip~ -1 0;
#X obj 1426 890 snapshot~;
#X obj 1403 840 bang~;
#X obj 1427 947 change;
#X obj 1427 975 sel 1;
#X msg 1428 1007 1;
#X obj 1358 1035 tgl 19 0 empty empty empty 0 -10 0 12 #fcfcfc #000000 #000000 0 1;
#X obj 1355 893 snapshot~;
#X obj 1356 950 change;
#X obj 1356 978 sel 1;
#X msg 1357 1010 0;
#X msg 1372 693 \$1 100;
#X obj 1139 916 < -0.3;
#X obj 1210 913 > 0.3;
#X obj 1353 920 < -0.3;
#X obj 1424 917 > 0.3;
#X obj 742 705 line~;
#X obj 822 802 clip~ 0 1;
#X obj 746 758 hip~ 1;
#X obj 751 734 lop~ 1;
#X obj 830 826 *~ 20;
#X obj 706 826 *~ 20;
#X obj 698 802 clip~ -1 0;
#X obj 794 880 snapshot~;
#X obj 771 830 bang~;
#X obj 795 937 change;
#X obj 795 965 sel 1;
#X msg 796 997 1;
#X obj 726 1025 tgl 19 0 empty empty empty 0 -10 0 12 #fcfcfc #000000 #000000 0 1;
#X obj 723 883 snapshot~;
#X obj 724 940 change;
#X obj 724 968 sel 1;
#X msg 725 1000 0;
#X msg 740 683 \$1 100;
#X obj 956 709 line~;
#X obj 1036 806 clip~ 0 1;
#X obj 960 762 hip~ 1;
#X obj 965 738 lop~ 1;
#X obj 1044 830 *~ 20;
#X obj 920 830 *~ 20;
#X obj 912 806 clip~ -1 0;
#X obj 1008 884 snapshot~;
#X obj 985 834 bang~;
#X obj 1009 941 change;
#X obj 1009 969 sel 1;
#X msg 1010 1001 1;
#X obj 940 1029 tgl 19 0 empty empty empty 0 -10 0 12 #fcfcfc #000000 #000000 0 1;
#X obj 937 887 snapshot~;
#X obj 938 944 change;
#X obj 938 972 sel 1;
#X msg 939 1004 0;
#X msg 954 687 \$1 100;
#X obj 935 914 < -0.3;
#X obj 1006 911 > 0.3;
#X obj 535 704 line~;
#X obj 615 801 clip~ 0 1;
#X obj 539 757 hip~ 1;
#X obj 544 733 lop~ 1;
#X obj 623 825 *~ 20;
#X obj 499 825 *~ 20;
#X obj 491 801 clip~ -1 0;
#X obj 587 879 snapshot~;
#X obj 564 829 bang~;
#X obj 588 936 change;
#X obj 588 964 sel 1;
#X msg 589 996 1;
#X obj 519 1024 tgl 19 0 empty empty empty 0 -10 0 12 #fcfcfc #000000 #000000 0 1;
#X obj 516 882 snapshot~;
#X obj 517 939 change;
#X obj 517 967 sel 1;
#X msg 518 999 0;
#X msg 533 682 \$1 100;
#X obj 117 698 line~;
#X obj 197 795 clip~ 0 1;
#X obj 121 751 hip~ 1;
#X obj 126 727 lop~ 1;
#X obj 205 819 *~ 20;
#X obj 81 819 *~ 20;
#X obj 73 795 clip~ -1 0;
#X obj 169 873 snapshot~;
#X obj 146 823 bang~;
#X obj 170 930 change;
#X obj 170 958 sel 1;
#X msg 171 990 1;
#X obj 101 1018 tgl 19 0 empty empty empty 0 -10 0 12 #fcfcfc #000000 #000000 0 1;
#X obj 98 876 snapshot~;
#X obj 99 933 change;
#X obj 99 961 sel 1;
#X msg 100 993 0;
#X msg 115 676 \$1 100;
#X obj 331 702 line~;
#X obj 411 799 clip~ 0 1;
#X obj 335 755 hip~ 1;
#X obj 340 731 lop~ 1;
#X obj 419 823 *~ 20;
#X obj 295 823 *~ 20;
#X obj 287 799 clip~ -1 0;
#X obj 383 877 snapshot~;
#X obj 360 827 bang~;
#X obj 384 934 change;
#X obj 384 962 sel 1;
#X msg 385 994 1;
#X obj 315 1022 tgl 19 0 empty empty empty 0 -10 0 12 #fcfcfc #000000 #000000 0 1;
#X obj 312 880 snapshot~;
#X obj 313 937 change;
#X obj 313 965 sel 1;
#X msg 314 997 0;
#X msg 329 680 \$1 100;
#X obj 310 907 < -0.3;
#X obj 381 904 > 0.3;
#X obj 1068 541 bng 19 250 50 0 empty empty empty 0 -10 0 12 #fcfcfc #000000 #000000;
#X obj 1068 518 inlet;
#X obj 514 909 < -0.4;
#X obj 585 906 > 0.4;
#X obj 721 910 < -0.4;
#X obj 792 907 > 0.4;
#X obj 96 903 < -0.4;
#X obj 167 900 > 0.4;
#X obj 238 316 inlet;
#X connect 0 0 1 0;
#X connect 1 0 2 0;
#X connect 1 2 6 0;
#X connect 1 3 10 0;
#X connect 1 4 14 0;
#X connect 1 5 18 0;
#X connect 1 6 22 0;
#X connect 1 7 26 0;
#X connect 2 0 3 0;
#X connect 3 0 4 0;
#X connect 4 0 5 0;
#X connect 5 0 143 0;
#X connect 6 0 7 0;
#X connect 7 0 8 0;
#X connect 8 0 9 0;
#X connect 9 0 161 0;
#X connect 10 0 11 0;
#X connect 11 0 12 0;
#X connect 12 0 13 0;
#X connect 13 0 108 0;
#X connect 14 0 15 0;
#X connect 15 0 16 0;
#X connect 16 0 17 0;
#X connect 17 0 87 0;
#X connect 18 0 19 0;
#X connect 19 0 20 0;
#X connect 20 0 21 0;
#X connect 21 0 105 0;
#X connect 22 0 23 0;
#X connect 23 0 24 0;
#X connect 24 0 25 0;
#X connect 25 0 47 0;
#X connect 26 0 27 0;
#X connect 27 0 28 0;
#X connect 28 0 29 0;
#X connect 29 0 65 0;
#X connect 30 0 33 0;
#X connect 31 0 34 0;
#X connect 32 0 31 0;
#X connect 32 0 36 0;
#X connect 33 0 32 0;
#X connect 34 0 37 0;
#X connect 35 0 43 0;
#X connect 36 0 35 0;
#X connect 37 0 67 0;
#X connect 38 0 37 0;
#X connect 38 0 43 0;
#X connect 39 0 40 0;
#X connect 40 0 41 0;
#X connect 41 0 42 0;
#X connect 43 0 66 0;
#X connect 44 0 45 0;
#X connect 45 0 46 0;
#X connect 46 0 42 0;
#X connect 47 0 30 0;
#X connect 48 0 51 0;
#X connect 49 0 52 0;
#X connect 50 0 49 0;
#X connect 50 0 54 0;
#X connect 51 0 50 0;
#X connect 52 0 55 0;
#X connect 53 0 61 0;
#X connect 54 0 53 0;
#X connect 55 0 69 0;
#X connect 56 0 55 0;
#X connect 56 0 61 0;
#X connect 57 0 58 0;
#X connect 58 0 59 0;
#X connect 59 0 60 0;
#X connect 61 0 68 0;
#X connect 62 0 63 0;
#X connect 63 0 64 0;
#X connect 64 0 60 0;
#X connect 65 0 48 0;
#X connect 66 0 44 0;
#X connect 67 0 39 0;
#X connect 68 0 62 0;
#X connect 69 0 57 0;
#X connect 70 0 73 0;
#X connect 71 0 74 0;
#X connect 72 0 71 0;
#X connect 72 0 76 0;
#X connect 73 0 72 0;
#X connect 74 0 77 0;
#X connect 75 0 83 0;
#X connect 76 0 75 0;
#X connect 77 0 169 0;
#X connect 78 0 77 0;
#X connect 78 0 83 0;
#X connect 79 0 80 0;
#X connect 80 0 81 0;
#X connect 81 0 82 0;
#X connect 83 0 168 0;
#X connect 84 0 85 0;
#X connect 85 0 86 0;
#X connect 86 0 82 0;
#X connect 87 0 70 0;
#X connect 88 0 91 0;
#X connect 89 0 92 0;
#X connect 90 0 89 0;
#X connect 90 0 94 0;
#X connect 91 0 90 0;
#X connect 92 0 95 0;
#X connect 93 0 101 0;
#X connect 94 0 93 0;
#X connect 95 0 107 0;
#X connect 96 0 95 0;
#X connect 96 0 101 0;
#X connect 97 0 98 0;
#X connect 98 0 99 0;
#X connect 99 0 100 0;
#X connect 101 0 106 0;
#X connect 102 0 103 0;
#X connect 103 0 104 0;
#X connect 104 0 100 0;
#X connect 105 0 88 0;
#X connect 106 0 102 0;
#X connect 107 0 97 0;
#X connect 108 0 111 0;
#X connect 109 0 112 0;
#X connect 110 0 109 0;
#X connect 110 0 114 0;
#X connect 111 0 110 0;
#X connect 112 0 115 0;
#X connect 113 0 121 0;
#X connect 114 0 113 0;
#X connect 115 0 167 0;
#X connect 116 0 115 0;
#X connect 116 0 121 0;
#X connect 117 0 118 0;
#X connect 118 0 119 0;
#X connect 119 0 120 0;
#X connect 121 0 166 0;
#X connect 122 0 123 0;
#X connect 123 0 124 0;
#X connect 124 0 120 0;
#X connect 125 0 108 0;
#X connect 126 0 129 0;
#X connect 127 0 130 0;
#X connect 128 0 127 0;
#X connect 128 0 132 0;
#X connect 129 0 128 0;
#X connect 130 0 133 0;
#X connect 131 0 139 0;
#X connect 132 0 131 0;
#X connect 133 0 171 0;
#X connect 134 0 133 0;
#X connect 134 0 139 0;
#X connect 135 0 136 0;
#X connect 136 0 137 0;
#X connect 137 0 138 0;
#X connect 139 0 170 0;
#X connect 140 0 141 0;
#X connect 141 0 142 0;
#X connect 142 0 138 0;
#X connect 143 0 126 0;
#X connect 144 0 147 0;
#X connect 145 0 148 0;
#X connect 146 0 145 0;
#X connect 146 0 150 0;
#X connect 147 0 146 0;
#X connect 148 0 151 0;
#X connect 149 0 157 0;
#X connect 150 0 149 0;
#X connect 151 0 163 0;
#X connect 152 0 151 0;
#X connect 152 0 157 0;
#X connect 153 0 154 0;
#X connect 154 0 155 0;
#X connect 155 0 156 0;
#X connect 157 0 162 0;
#X connect 158 0 159 0;
#X connect 159 0 160 0;
#X connect 160 0 156 0;
#X connect 161 0 144 0;
#X connect 162 0 158 0;
#X connect 163 0 153 0;
#X connect 164 0 46 0;
#X connect 164 0 104 0;
#X connect 164 0 64 0;
#X connect 164 0 86 0;
#X connect 164 0 124 0;
#X connect 164 0 160 0;
#X connect 164 0 142 0;
#X connect 165 0 164 0;
#X connect 166 0 122 0;
#X connect 167 0 117 0;
#X connect 168 0 84 0;
#X connect 169 0 79 0;
#X connect 170 0 140 0;
#X connect 171 0 135 0;
#X connect 172 0 0 0;
