#N canvas 942 621 1920 1157 12;
#X obj 148 90 comport;
#X msg 148 46 devices;
#X msg 214 66 open 5 9600;
#X obj 148 118 serial_print;
#X obj 149 148 s;
#X obj 510 121 r touchleaves;
#X obj 117 378 line;
#X obj 45 378 line;
#X msg 55 353 \$1 10000;
#X obj 67 437 >;
#X obj 70 469 tgl 19 0 empty empty empty 0 -10 0 12 #fcfcfc #000000 #000000 0 1;
#X msg 127 353 \$1 50;
#X obj 137 310 int;
#X obj 262 375 line;
#X obj 190 375 line;
#X msg 200 350 \$1 10000;
#X obj 212 434 >;
#X obj 215 466 tgl 19 0 empty empty empty 0 -10 0 12 #fcfcfc #000000 #000000 0 1;
#X msg 272 350 \$1 50;
#X obj 282 307 int;
#X obj 418 368 line;
#X obj 346 368 line;
#X msg 356 343 \$1 10000;
#X obj 368 427 >;
#X obj 371 459 tgl 19 0 empty empty empty 0 -10 0 12 #fcfcfc #000000 #000000 0 1;
#X msg 428 343 \$1 50;
#X obj 438 300 int;
#X obj 563 365 line;
#X obj 491 365 line;
#X msg 501 340 \$1 10000;
#X obj 513 424 >;
#X obj 516 456 tgl 19 0 empty empty empty 0 -10 0 12 #fcfcfc #000000 #000000 0 1;
#X msg 573 340 \$1 50;
#X obj 583 297 int;
#X obj 698 374 line;
#X obj 626 374 line;
#X msg 636 349 \$1 10000;
#X obj 648 433 >;
#X obj 651 465 tgl 19 0 empty empty empty 0 -10 0 12 #fcfcfc #000000 #000000 0 1;
#X msg 708 349 \$1 50;
#X obj 718 306 int;
#X obj 852 376 line;
#X obj 780 376 line;
#X msg 790 351 \$1 10000;
#X obj 802 435 >;
#X obj 805 467 tgl 19 0 empty empty empty 0 -10 0 12 #fcfcfc #000000 #000000 0 1;
#X msg 862 351 \$1 50;
#X obj 872 308 int;
#X msg 236 32 close;
#X msg 931 319 0;
#X obj 212 232 unpack 0 0 0 0 0 0 0, f 65;
#X obj 1006 379 line;
#X obj 934 379 line;
#X msg 944 354 \$1 10000;
#X obj 956 438 >;
#X obj 959 470 tgl 19 0 empty empty empty 0 -10 0 12 #fcfcfc #000000 #000000 0 1;
#X msg 1016 354 \$1 50;
#X obj 1026 311 int;
#X obj 104 415 + 2;
#X obj 405 405 + 2;
#X obj 550 402 + 2;
#X obj 685 411 + 2;
#X obj 839 413 + 2;
#X obj 993 416 + 2;
#X obj 249 412 + 1.5;
#X obj 70 498 change;
#X obj 217 506 change;
#X obj 380 502 change;
#X obj 649 501 change;
#X obj 959 505 change;
#X obj 98 858 array define touch 7;
#X obj 81 544 sel 1;
#X obj 217 554 sel 1;
#X obj 379 550 sel 1;
#X obj 515 560 sel 1;
#X obj 518 506 change;
#X obj 647 561 sel 1;
#X obj 783 571 sel 1;
#X obj 945 567 sel 1;
#X obj 799 509 change;
#X msg 86 593 0;
#X msg 223 602 1;
#X msg 378 604 2;
#X msg 515 613 3;
#X msg 652 615 4;
#X msg 789 624 5;
#X msg 944 626 6;
#X floatatom 101 675 5 0 0 0 - - - 0;
#X obj 104 702 change;
#X floatatom 106 730 5 0 0 0 - - - 0;
#X connect 0 0 3 0;
#X connect 1 0 0 0;
#X connect 2 0 0 0;
#X connect 3 0 4 0;
#X connect 3 1 4 1;
#X connect 5 0 50 0;
#X connect 6 0 58 0;
#X connect 7 0 9 0;
#X connect 8 0 7 0;
#X connect 9 0 10 0;
#X connect 10 0 65 0;
#X connect 11 0 6 0;
#X connect 12 0 8 0;
#X connect 12 0 11 0;
#X connect 13 0 64 0;
#X connect 14 0 16 0;
#X connect 15 0 14 0;
#X connect 16 0 17 0;
#X connect 17 0 66 0;
#X connect 18 0 13 0;
#X connect 19 0 15 0;
#X connect 19 0 18 0;
#X connect 20 0 59 0;
#X connect 21 0 23 0;
#X connect 22 0 21 0;
#X connect 23 0 24 0;
#X connect 24 0 67 0;
#X connect 25 0 20 0;
#X connect 26 0 22 0;
#X connect 26 0 25 0;
#X connect 27 0 60 0;
#X connect 28 0 30 0;
#X connect 29 0 28 0;
#X connect 30 0 31 0;
#X connect 31 0 75 0;
#X connect 32 0 27 0;
#X connect 33 0 29 0;
#X connect 33 0 32 0;
#X connect 34 0 61 0;
#X connect 35 0 37 0;
#X connect 36 0 35 0;
#X connect 37 0 38 0;
#X connect 38 0 68 0;
#X connect 39 0 34 0;
#X connect 40 0 36 0;
#X connect 40 0 39 0;
#X connect 41 0 62 0;
#X connect 42 0 44 0;
#X connect 43 0 42 0;
#X connect 44 0 45 0;
#X connect 45 0 79 0;
#X connect 46 0 41 0;
#X connect 47 0 43 0;
#X connect 47 0 46 0;
#X connect 48 0 0 0;
#X connect 50 0 12 0;
#X connect 50 1 19 0;
#X connect 50 2 26 0;
#X connect 50 3 33 0;
#X connect 50 4 40 0;
#X connect 50 5 47 0;
#X connect 50 6 57 0;
#X connect 51 0 63 0;
#X connect 52 0 54 0;
#X connect 53 0 52 0;
#X connect 54 0 55 0;
#X connect 55 0 69 0;
#X connect 56 0 51 0;
#X connect 57 0 53 0;
#X connect 57 0 56 0;
#X connect 58 0 9 1;
#X connect 59 0 23 1;
#X connect 60 0 30 1;
#X connect 61 0 37 1;
#X connect 62 0 44 1;
#X connect 63 0 54 1;
#X connect 64 0 16 1;
#X connect 65 0 71 0;
#X connect 66 0 72 0;
#X connect 67 0 73 0;
#X connect 68 0 76 0;
#X connect 69 0 78 0;
#X connect 71 0 80 0;
#X connect 72 0 81 0;
#X connect 73 0 82 0;
#X connect 74 0 83 0;
#X connect 75 0 74 0;
#X connect 76 0 84 0;
#X connect 77 0 85 0;
#X connect 78 0 86 0;
#X connect 79 0 77 0;
#X connect 80 0 87 0;
#X connect 81 0 87 0;
#X connect 82 0 87 0;
#X connect 83 0 87 0;
#X connect 84 0 87 0;
#X connect 85 0 87 0;
#X connect 86 0 87 0;
#X connect 87 0 88 0;
#X connect 88 0 89 0;
